
        <svg xmlns="http://www.w3.org/2000/svg" xmlns:xlink="http://www.w3.org/1999/xlink" version="1.1" width="3162.3603351955308" height="620.6436239538571" viewBox="0 0 3162.3603351955308 620.6436239538571">
			
			<g transform="scale(8.118016759776536) translate(10, 10)">
				<defs id="SvgjsDefs1694"/><g id="SvgjsG1695" featureKey="41S5F6-0" transform="matrix(2.3706983723457977,0,0,2.3706983723457977,-3.136557055732687,-3.1360675764792876)" fill="#fff"><title xmlns="http://www.w3.org/2000/svg">Compass Rose</title><g xmlns="http://www.w3.org/2000/svg" transform="translate(0,-270.54165)"><path d="m 13.213772,271.86451 c 0,0 -0.330414,1.57422 -0.495488,2.32002 -4.5004381,0.26792 -8.5490906,3.86959 -9.0589601,8.73324 l -2.3362718,0.39631 v 0.46306 c 0,0 1.6134986,0.33411 2.3099932,0.48122 0.1985943,4.8661 3.9842378,8.81007 8.7829127,9.25591 l 0.35795,2.16286 h 0.461085 c 0,0 0.299208,-1.46569 0.440854,-2.12958 4.942353,-0.18018 8.944344,-4.05901 9.314763,-8.9496 l 2.144671,-0.35588 v -0.5146 c 0,0 -1.544218,-0.24974 -2.134668,-0.37507 -0.252918,-4.86504 -4.091669,-8.78509 -8.923317,-9.16078 l -0.38626,-2.32711 z m 0.492434,3.34015 c 0.0055,2.4e-4 0.01076,5.1e-4 0.01624,0.001 l 1.076884,6.33911 -1.062731,1.02014 z m -1.218447,0.0233 -1.090029,4.9338 -0.114252,-0.088 -3.6512887,-2.74595 c 1.3257803,-1.15724 3.0009837,-1.92351 4.8555757,-2.0999 z m 1.767502,0.0117 c 1.910825,0.20498 3.634487,1.02629 4.965774,2.2657 l -4.14067,2.60541 z m -7.2732527,2.70448 2.4995783,3.97133 -4.7494068,0.81693 c 0.2387283,-1.84004 1.0459864,-3.49869 2.2498285,-4.78823 z m 12.8214547,0.17491 c 1.203273,1.35934 1.992566,3.09346 2.151743,5.01369 l -5.155869,-1.07979 0.08695,-0.11524 z m -10.2399721,1.31231 1.2730491,0.95946 -0.05359,0.24468 z m 7.9608451,0.82196 -0.951498,1.24155 -0.233582,-0.0495 z m -6.599827,1.93713 1.077895,1.07775 -7.3217933,0.0294 c 5.166e-4,-0.01 0.00155,-0.021 0.00216,-0.0313 z m 10.963963,2.06755 -6.431952,1.0919 -1.020262,-1.06156 z m -17.2078613,0.22142 4.9617532,1.05247 c -0.9876881,1.29318 -1.9752297,2.58696 -2.9626946,3.88031 -1.1331736,-1.35517 -1.8666128,-3.05726 -1.9990586,-4.93243 z m 17.2614503,0.29623 c -0.207903,1.97623 -1.079006,3.74997 -2.386329,5.10062 l -2.67146,-4.24393 z m -9.213644,0.19614 0.03033,7.4553 -1.093063,-6.43113 z m -2.8585447,1.11617 0.2325667,0.0495 -1.1850752,1.19201 z m 5.7049497,0.84824 1.189123,1.16976 -1.234624,-0.94025 z m -0.604674,0.45393 c 1.326727,1.0143 2.6542,2.0289 3.98091,3.04319 -1.378383,1.1797 -3.126047,1.94092 -5.054754,2.06756 z m -3.580504,0.0556 0.846336,5.00863 c -1.931027,-0.24085 -3.6609387,-1.11193 -4.9789369,-2.40686 z" style="color:;font-style:normal;font-variant:normal;font-weight:normal;font-stretch:normal;font-size:medium;line-height:normal;font-family:sans-serif;font-variant-ligatures:normal;font-variant-position:normal;font-variant-caps:normal;font-variant-numeric:normal;font-variant-alternates:normal;font-feature-settings:normal;text-indent:0;text-align:start;text-decoration:none;text-decoration-line:none;text-decoration-style:solid;text-decoration-color:;letter-spacing:normal;word-spacing:normal;text-transform:none;writing-mode:lr-tb;direction:ltr;text-orientation:mixed;dominant-baseline:auto;baseline-shift:baseline;text-anchor:start;white-space:normal;shape-padding:0;clip-rule:nonzero;display:inline;overflow:visible;visibility:visible;opacity:1;isolation:auto;mix-blend-mode:normal;color-interpolation:sRGB;color-interpolation-filters:linearRGB;solid-color:;solid-opacity:1;vector-effect:none;fill:#ffffff;fill-opacity:1;fill-rule:nonzero;stroke:none;stroke-width:0.26458332;stroke-linecap:butt;stroke-linejoin:miter;stroke-miterlimit:4;stroke-dasharray:none;stroke-dashoffset:0;stroke-opacity:1;color-rendering:auto;image-rendering:auto;shape-rendering:auto;text-rendering:auto;enable-background:accumulate"/></g></g><g id="SvgjsG1696" featureKey="RGwKHf-0" transform="matrix(1.0678526564822715,0,0,1.0678526564822715,74.71857625211027,13.84916845425004)" fill="#fff"><path d="M10.96 6 l1.66 0 l0 14 l-1.28 0 l-8.48 -10.96 l0 10.96 l-1.66 0 l0 -14 l1.28 0 l8.48 10.98 l0 -10.98 z M36.528000000000006 20 l-1.44 -3.3 l-7.48 0 l-1.44 3.3 l-1.76 0 l6.24 -14 l1.38 0 l6.26 14 l-1.76 0 z M28.228 15.3 l6.24 0 l-3.12 -7.12 z M58.57600000000001 6 l1.66 0 l0 8.92 c0 3.44 -2.24 5.38 -5.08 5.38 s-5.08 -1.94 -5.08 -5.38 l0 -8.92 l1.66 0 l0 8.92 c0 2.62 1.56 3.8 3.42 3.8 s3.42 -1.18 3.42 -3.8 l0 -8.92 z M81.864 6 l0 1.56 l-3.88 0 l0 12.44 l-1.66 0 l0 -12.44 l-3.9 0 l0 -1.56 l9.44 0 z M95.712 6 l0 14 l-1.66 0 l0 -14 l1.66 0 z M119.86000000000001 18.5 c-1.28 1.1 -2.9 1.7 -4.7 1.7 c-3.64 0 -7.16 -2.96 -7.16 -7.2 s3.52 -7.2 7.16 -7.2 c1.78 0 3.38 0.6 4.64 1.66 l-1.02 1.16 c-0.98 -0.78 -2.24 -1.24 -3.5 -1.24 c-2.86 0 -5.56 2.32 -5.56 5.62 s2.7 5.62 5.56 5.62 c1.28 0 2.56 -0.48 3.54 -1.28 z M136.24800000000002 5.76 c2.18 0 3.78 1.44 4.38 2.94 l-1.26 0.68 c-0.64 -1.28 -1.66 -2.12 -3.12 -2.12 c-1.54 0 -2.6 0.88 -2.6 2.1 c0 1.14 0.72 1.86 2.24 2.44 l1.02 0.38 c2.52 0.94 4.1 2.02 4.1 4.24 c0 2.4 -2.3 3.88 -4.68 3.88 s-4.34 -1.44 -4.88 -3.44 l1.34 -0.64 c0.48 1.48 1.74 2.56 3.54 2.56 c1.6 0 2.96 -0.92 2.96 -2.34 c0 -1.6 -1.12 -2.2 -2.78 -2.84 l-1.04 -0.4 c-2.12 -0.8 -3.48 -1.9 -3.48 -3.88 c0 -2.04 1.8 -3.56 4.26 -3.56 z M154.75600000000003 18.44 l6.66 0 l0 1.56 l-7.06 0 l-1.26 0 l0 -14 l1.66 0 l6.48 0 l0 1.56 l-6.48 0 l0 4.64 l5.04 0 l0 1.52 l-5.04 0 l0 4.72 z M183.46400000000003 6 l1.66 0 l0 14 l-1.28 0 l-8.48 -10.96 l0 10.96 l-1.66 0 l0 -14 l1.28 0 l8.48 10.98 l0 -10.98 z M202.01200000000003 5.76 c2.18 0 3.78 1.44 4.38 2.94 l-1.26 0.68 c-0.64 -1.28 -1.66 -2.12 -3.12 -2.12 c-1.54 0 -2.6 0.88 -2.6 2.1 c0 1.14 0.72 1.86 2.24 2.44 l1.02 0.38 c2.52 0.94 4.1 2.02 4.1 4.24 c0 2.4 -2.3 3.88 -4.68 3.88 s-4.34 -1.44 -4.88 -3.44 l1.34 -0.64 c0.48 1.48 1.74 2.56 3.54 2.56 c1.6 0 2.96 -0.92 2.96 -2.34 c0 -1.6 -1.12 -2.2 -2.78 -2.84 l-1.04 -0.4 c-2.12 -0.8 -3.48 -1.9 -3.48 -3.88 c0 -2.04 1.8 -3.56 4.26 -3.56 z M225.72000000000003 5.800000000000001 c3.64 0 7.16 2.96 7.16 7.2 s-3.52 7.2 -7.16 7.2 c-3.66 0 -7.16 -2.96 -7.16 -7.2 s3.5 -7.2 7.16 -7.2 z M225.72000000000003 18.62 c2.74 0 5.44 -2.32 5.44 -5.62 s-2.7 -5.62 -5.44 -5.62 c-2.76 0 -5.44 2.32 -5.44 5.62 s2.68 5.62 5.44 5.62 z M255.448 20 l-1.8 0 l-3.54 -5.04 l-0.38 0 l-2.9 0 l0 5.04 l-1.66 0 l0 -14 l4.56 0 c3.14 0 4.96 1.92 4.96 4.52 c0 2 -1.08 3.56 -3 4.16 z M246.82800000000003 7.5600000000000005 l0 5.92 l2.86 0 c2.02 0 3.34 -1.04 3.34 -2.96 c0 -1.94 -1.32 -2.96 -3.34 -2.96 l-2.86 0 z M271.336 5.76 c2.18 0 3.78 1.44 4.38 2.94 l-1.26 0.68 c-0.64 -1.28 -1.66 -2.12 -3.12 -2.12 c-1.54 0 -2.6 0.88 -2.6 2.1 c0 1.14 0.72 1.86 2.24 2.44 l1.02 0.38 c2.52 0.94 4.1 2.02 4.1 4.24 c0 2.4 -2.3 3.88 -4.68 3.88 s-4.34 -1.44 -4.88 -3.44 l1.34 -0.64 c0.48 1.48 1.74 2.56 3.54 2.56 c1.6 0 2.96 -0.92 2.96 -2.34 c0 -1.6 -1.12 -2.2 -2.78 -2.84 l-1.04 -0.4 c-2.12 -0.8 -3.48 -1.9 -3.48 -3.88 c0 -2.04 1.8 -3.56 4.26 -3.56 z"/></g>
			</g>
		</svg>
	